<svg xmlns="http://www.w3.org/2000/svg" version="1.1" xmlns:xlink="http://www.w3.org/1999/xlink" xmlns:svgjs="http://svgjs.dev/svgjs" viewBox="0 0 800 800"><defs><linearGradient x1="50%" y1="0%" x2="50%" y2="100%" id="ccchaos-grad"><stop stop-color="hsl(206, 75%, 49%)" stop-opacity="1" offset="0%"></stop><stop stop-color="hsl(331, 90%, 56%)" stop-opacity="1" offset="100%"></stop></linearGradient></defs><g stroke-width="2" stroke="url(#ccchaos-grad)" fill="none" stroke-linecap="round"><path d="M393.53 99.87C403.25 100.55 413.13 102.22 423.17 104.8 433.24 107.78 443.49 111.52 453.9 115.91 464.37 120.46 475.03 125.48 485.85 130.87 496.73 136.17 507.77 141.68 518.92 147.33 530.08 152.69 541.29 158.1 552.44 163.52 563.48 168.55 574.32 173.59 584.81 178.61 594.96 183.26 604.53 187.94 613.35 192.68 621.52 197.12 628.7 201.69 634.71 206.44 641.75 213.37 647.76 228.44 646.92 236.74 645.51 242.37 643.29 248.38 640.54 254.78 638.15 261.19 635.86 268 634.05 275.18 633.53 282.4 634.09 289.98 635.96 297.9 639.69 305.85 644.92 314.12 651.57 322.68 659.8 331.25 668.97 340.1 678.64 349.19 688.68 358.27 698.2 367.6 706.59 377.13 713.73 386.66 718.61 396.19 720.99 405.69 721.27 415.21 718.9 424.73 714.08 434.24 707.45 443.8 698.94 453.39 688.99 463.02 678.3 472.74 667.04 482.54 655.64 492.43 644.68 502.45 634.26 512.6 624.62 522.86 616.14 533.27 608.68 543.82 602.25 554.45 597.08 565.19 592.79 575.99 589.18 586.75 586.51 597.51 584.18 608.12 581.97 618.46 580.2 628.59 578.2 638.26 575.8 647.32 573.42 655.88 570.41 663.61 566.71 670.35 562.8 676.33 558.1 681.14 552.64 684.67 546.9 687.31 540.43 688.62 533.27 688.58 525.89 687.78 517.91 685.8 509.42 682.75 500.77 679.35 491.7 675.24 482.28 670.64 472.78 666.35 463 662.04 452.98 657.96 442.94 654.84 432.71 652.36 422.31 650.65 411.91 650.32 401.6 650.87 391.39 652.23 381.18 654.77 371.06 657.83 361.03 661.2 350.98 665.21 340.99 669.08 331.09 672.58 321.13 676.06 311.23 678.77 301.4 680.54 291.52 681.77 281.7 681.82 271.97 680.63 262.22 678.65 252.59 675.39 243.13 670.91 233.72 665.64 224.54 659.28 215.66 651.93 206.93 643.99 198.59 635.26 190.7 625.91 183.09 616.2 176.01 606.05 169.55 595.6 163.43 585.02 157.96 574.27 153.18 563.46 148.73 552.67 144.94 541.9 141.81 531.19 138.89 520.57 136.53 510.04 134.68 499.63 132.83 489.33 131.35 479.12 130.18 469.02 128.79 459.01 127.58 449.07 126.52 439.21 125.07 429.4 123.71 419.64 122.43 409.94 120.76 400.26 119.22 390.61 117.87 381.02 116.29 371.43 115.1 362.11 114.35 353.08 113.64 344.04 113.56 335.3 114.14 326.86 114.99 318.43 116.62 310.32 119.03 302.55 121.83 294.79 125.42 287.37 129.77 280.33 134.46 273.28 139.83 266.59 145.78 260.28 151.93 253.93 158.55 247.93 165.54 242.27 172.52 236.53 179.76 231.07 187.16 225.89 194.39 220.54 201.71 215.39 209.07 210.42 216.17 205.19 223.3 200.06 230.45 195.01 237.32 189.62 244.23 184.24 251.22 178.88 257.97 173.15 264.84 167.41 271.87 161.7 278.71 155.66 285.78 149.69 293.07 143.85 300.25 137.83 307.72 132.06 315.47 126.62 323.16 121.23 331.18 116.34 339.52 112.06 347.82 108.07 356.47 104.85 365.47 102.5 374.45 100.63 383.8 99.74 393.52 99.87" stroke-dasharray="0 9" transform="rotate(0, 400, 400)" opacity="0.14"></path><path d="M399.62 110.46C409.1 111.13 418.76 112.74 428.56 115.22 438.39 118.09 448.39 121.7 458.54 125.94 468.73 130.36 479.07 135.26 489.52 140.52 500 145.73 510.57 151.17 521.16 156.77 531.71 162.13 542.2 167.56 552.53 173.01 562.69 178.12 572.53 183.24 581.92 188.35 590.92 193.11 599.27 197.89 606.81 202.72 613.73 207.24 619.66 211.87 624.45 216.63 629.89 223.55 633.7 238.33 632.44 246.34 631.02 251.74 629.02 257.47 626.69 263.55 624.86 269.63 623.27 276.07 622.22 282.86 622.45 289.66 623.72 296.82 626.2 304.31 630.38 311.82 635.88 319.65 642.61 327.78 650.71 335.91 659.58 344.34 668.83 353.03 678.35 361.73 687.35 370.68 695.27 379.89 702.06 389.1 706.77 398.34 709.2 407.61 709.72 416.89 707.81 426.22 703.62 435.58 697.73 444.98 690.03 454.45 680.89 463.98 670.97 473.59 660.35 483.29 649.44 493.08 638.77 502.98 628.42 512.99 618.65 523.1 609.82 533.3 601.85 543.59 594.76 553.92 588.8 564.3 583.67 574.66 579.23 584.91 575.71 595.1 572.62 605.06 569.76 614.68 567.43 624.04 565.03 632.88 562.41 641.07 559.93 648.76 557 655.6 553.53 661.47 547.85 668.65 532.89 675.99 523.6 676.03 517.02 675.01 509.83 672.94 502.11 669.92 494.27 666.65 485.95 662.78 477.22 658.49 468.43 654.52 459.29 650.55 449.84 646.8 440.38 643.95 430.65 641.66 420.69 640.06 410.72 639.72 400.78 640.16 390.87 641.33 380.97 643.59 371.1 646.32 361.28 649.35 351.45 652.99 341.66 656.54 331.91 659.8 322.15 663.11 312.43 665.75 302.77 667.58 293.11 668.99 283.51 669.34 274.03 668.59 264.57 667.16 255.25 664.56 246.14 660.82 237.12 656.38 228.36 650.87 219.93 644.42 211.7 637.39 203.87 629.56 196.51 621.07 189.45 612.2 182.92 602.84 177 593.11 171.42 583.2 166.46 573.05 162.15 562.77 158.15 552.46 154.76 542.09 151.99 531.74 149.38 521.43 147.27 511.17 145.63 501 143.96 490.9 142.61 480.89 141.54 470.99 140.22 461.14 139.05 451.39 138 441.73 136.56 432.11 135.18 422.57 133.88 413.12 132.18 403.68 130.6 394.31 129.19 385.03 127.55 375.75 126.27 366.77 125.42 358.1 124.6 349.42 124.36 341.04 124.77 332.99 125.43 324.93 126.85 317.19 129.01 309.79 131.56 302.38 134.88 295.31 138.94 288.59 143.36 281.84 148.45 275.43 154.14 269.36 160.05 263.23 166.46 257.41 173.25 251.88 180.1 246.25 187.23 240.86 194.56 235.7 201.77 230.36 209.1 225.18 216.5 220.14 223.69 214.84 230.91 209.62 238.16 204.46 245.15 198.97 252.18 193.5 259.27 188.04 266.12 182.25 273.07 176.46 280.13 170.71 287.02 164.69 294.07 158.76 301.32 152.98 308.44 147.07 315.81 141.42 323.43 136.13 330.97 130.91 338.81 126.19 346.96 122.07 355.06 118.25 363.49 115.17 372.27 112.93 381.02 111.16 390.13 110.32 399.61 110.46" stroke-dasharray="2 5" transform="rotate(4.04, 400, 400)" opacity="0.43"></path><path d="M405.74 121.06C414.98 121.7 424.37 123.25 433.89 125.63 443.43 128.39 453.11 131.86 462.9 135.96 472.71 140.23 482.62 144.98 492.58 150.11 502.53 155.21 512.5 160.57 522.4 166.1 532.22 171.42 541.88 176.85 551.29 182.31 560.47 187.48 569.25 192.66 577.51 197.85 585.36 202.71 592.52 207.59 598.85 212.5 607 219.47 617.24 233.58 619.2 240.89 619.44 248.2 615.89 264 613.24 272.6 612.01 278.4 611.11 284.54 610.81 291 611.74 297.46 613.65 304.25 616.68 311.37 621.22 318.49 626.92 325.93 633.68 333.67 641.62 341.41 650.17 349.46 658.98 357.79 668 366.12 676.48 374.73 683.95 383.62 690.39 392.51 694.93 401.47 697.38 410.49 698.12 419.53 696.63 428.64 693.02 437.81 687.84 447.02 680.92 456.31 672.6 465.68 663.45 475.12 653.51 484.65 643.16 494.26 632.88 503.95 622.74 513.73 612.98 523.56 603.96 533.46 595.61 543.39 588.01 553.31 581.4 563.22 575.53 573.05 570.32 582.71 566 592.24 562.14 601.49 558.59 610.34 555.63 618.9 552.72 626.9 549.73 634.22 545.47 644.04 535.11 658.15 528.62 662.04 524 663.58 518.78 664.02 512.98 663.36 507.03 662.17 500.52 660.06 493.48 657.11 486.33 654.01 478.7 650.37 470.63 646.39 462.5 642.74 453.98 639.1 445.11 635.66 436.21 633.06 427 630.96 417.51 629.47 408.01 629.12 398.47 629.46 388.93 630.45 379.38 632.45 369.83 634.86 360.29 637.56 350.75 640.86 341.23 644.09 331.74 647.09 322.25 650.2 312.8 652.74 303.42 654.58 294.07 656.1 284.79 656.7 275.65 656.31 266.58 655.35 257.67 653.33 248.99 650.27 240.45 646.57 232.19 641.87 224.29 636.27 216.6 630.11 209.34 623.16 202.56 615.54 196.07 607.53 190.11 598.98 184.75 590.02 179.7 580.84 175.24 571.37 171.4 561.7 167.82 551.95 164.82 542.09 162.37 532.19 160.04 522.29 158.17 512.4 156.72 502.56 155.19 492.76 153.95 483.02 152.94 473.38 151.68 463.78 150.53 454.26 149.48 444.85 148.04 435.47 146.65 426.18 145.31 416.99 143.59 407.82 141.97 398.74 140.52 389.76 138.82 380.79 137.47 372.13 136.52 363.78 135.59 355.43 135.22 347.39 135.46 339.67 135.94 331.94 137.14 324.53 139.06 317.44 141.35 310.34 144.39 303.55 148.14 297.09 152.26 290.59 157.05 284.39 162.44 278.49 168.08 272.52 174.23 266.82 180.79 261.38 187.45 255.81 194.42 250.44 201.62 245.27 208.77 239.91 216.06 234.67 223.45 229.55 230.68 224.18 237.96 218.86 245.28 213.59 252.38 208.03 259.52 202.47 266.7 196.94 273.66 191.1 280.7 185.3 287.84 179.55 294.79 173.57 301.88 167.7 309.13 162.01 316.25 156.23 323.57 150.73 331.11 145.59 338.57 140.55 346.29 136.01 354.29 132.07 362.24 128.42 370.49 125.49 379.06 123.37 387.61 121.69 396.5 120.91 405.73 121.06" stroke-dasharray="4 9" transform="rotate(8.08, 400, 400)" opacity="0.99"></path><path d="M411.44 131.65C420.41 132.27 429.49 133.76 438.67 136.04 447.86 138.68 457.15 142.01 466.49 145.94 475.84 150.06 485.22 154.66 494.59 159.64 503.92 164.61 513.19 169.86 522.3 175.3 531.3 180.57 540.06 185.97 548.49 191.42 556.67 196.62 564.38 201.85 571.52 207.09 578.27 212.04 584.31 217.01 589.53 222 596.15 229.11 603.96 243.39 605.18 250.71 605.1 257.97 602.09 273.46 600.21 281.79 599.61 287.38 599.41 293.27 599.82 299.47 601.39 305.64 603.88 312.12 607.37 318.92 612.22 325.7 618.06 332.8 624.79 340.2 632.52 347.6 640.73 355.3 649.11 363.29 657.62 371.28 665.6 379.56 672.63 388.14 678.72 396.72 683.08 405.39 685.54 414.15 686.47 422.92 685.36 431.78 682.29 440.72 677.78 449.69 671.62 458.76 664.09 467.9 655.72 477.09 646.51 486.37 636.77 495.72 626.97 505.11 617.14 514.56 607.52 524.03 598.45 533.53 589.89 543.01 581.93 552.42 574.8 561.78 568.31 571 562.44 580 557.38 588.82 552.79 597.32 548.56 605.37 544.93 613.1 541.45 620.26 537.99 626.74 533.21 635.33 522.6 647.24 516.36 650.28 509.59 651.42 493.36 648.23 483.89 644.34 477.34 641.4 470.3 638.02 462.83 634.34 455.3 631.01 447.36 627.69 439.04 624.55 430.7 622.19 422.02 620.27 413.01 618.87 404.01 618.52 394.92 618.78 385.77 619.6 376.64 621.34 367.47 623.46 358.28 625.84 349.11 628.8 339.94 631.72 330.79 634.45 321.67 637.33 312.58 639.74 303.57 641.55 294.62 643.13 285.77 643.91 277.06 643.81 268.46 643.25 260.04 641.73 251.88 639.26 243.88 636.23 236.19 632.28 228.87 627.46 221.77 622.14 215.11 616.04 208.93 609.27 203.03 602.12 197.65 594.4 192.84 586.24 188.31 577.83 184.34 569.08 180.95 560.09 177.77 550.97 175.11 541.7 172.96 532.33 170.89 522.93 169.22 513.49 167.92 504.06 166.51 494.64 165.35 485.26 164.39 475.95 163.16 466.66 162.02 457.44 160.96 448.33 159.51 439.23 158.1 430.22 156.73 421.33 154.99 412.44 153.34 403.66 151.84 394.99 150.1 386.32 148.69 377.97 147.66 369.93 146.64 361.89 146.14 354.15 146.22 346.73 146.53 339.29 147.51 332.15 149.19 325.33 151.21 318.48 153.95 311.92 157.4 305.66 161.2 299.35 165.66 293.31 170.72 287.54 176.05 281.69 181.9 276.06 188.18 270.65 194.6 265.11 201.36 259.74 208.38 254.53 215.4 249.13 222.6 243.83 229.93 238.62 237.14 233.17 244.43 227.77 251.78 222.4 258.95 216.77 266.16 211.15 273.42 205.57 280.48 199.72 287.61 193.92 294.81 188.2 301.85 182.29 308.99 176.52 316.26 170.94 323.41 165.31 330.72 159.98 338.22 155.02 345.63 150.17 353.27 145.82 361.14 142.05 368.97 138.58 377.06 135.8 385.44 133.8 393.79 132.22 402.45 131.49 411.43 131.65" stroke-dasharray="9 11" transform="rotate(12.12, 400, 400)" opacity="0.51"></path><path d="M416.27 142.24C424.94 142.84 433.69 144.26 442.48 146.44 451.27 148.96 460.1 152.14 468.92 155.91 477.74 159.87 486.52 164.29 495.22 169.11 503.86 173.94 512.35 179.06 520.63 184.38 528.76 189.58 536.6 194.92 544.03 200.34 551.22 205.54 557.9 210.79 563.99 216.07 569.71 221.08 574.74 226.12 578.99 231.18 584.32 238.42 590.26 252.9 591.01 260.26 590.85 267.52 588.72 282.81 587.68 290.95 587.71 296.39 588.17 302.09 589.24 308.08 591.4 314.02 594.39 320.25 598.27 326.77 603.34 333.27 609.26 340.08 615.91 347.17 623.41 354.26 631.27 361.64 639.2 369.32 647.22 376.99 654.71 384.96 661.3 393.23 667.06 401.5 671.24 409.88 673.69 418.35 674.78 426.83 674.01 435.41 671.44 444.08 667.56 452.77 662.12 461.55 655.36 470.4 647.77 479.28 639.29 488.23 630.22 497.23 620.97 506.24 611.55 515.28 602.2 524.3 593.22 533.31 584.59 542.26 576.42 551.09 568.92 559.84 561.96 568.39 555.54 576.67 549.84 584.75 544.6 592.47 539.73 599.71 535.44 606.63 531.36 612.97 527.4 618.62 521.96 626.04 510.71 635.96 504.48 638.25 497.93 638.88 482.62 635.35 473.8 631.6 467.72 628.86 461.19 625.73 454.23 622.36 447.22 619.33 439.82 616.32 432.03 613.47 424.21 611.33 416.05 609.58 407.54 608.28 399.04 607.93 390.42 608.1 381.72 608.77 373.05 610.27 364.31 612.12 355.54 614.19 346.8 616.82 338.06 619.43 329.33 621.89 320.65 624.54 312.02 626.79 303.48 628.53 295 630.12 286.65 631.01 278.47 631.14 270.41 630.9 262.56 629.8 254.98 627.84 247.58 625.42 240.49 622.13 233.79 618.04 227.32 613.49 221.27 608.2 215.7 602.25 210.39 595.92 205.58 589.04 201.31 581.67 197.28 574.06 193.77 566.07 190.79 557.79 187.98 549.37 185.64 540.74 183.75 531.97 181.9 523.13 180.4 514.22 179.22 505.27 177.91 496.31 176.8 487.35 175.87 478.43 174.65 469.53 173.51 460.67 172.42 451.89 170.97 443.13 169.53 434.44 168.13 425.86 166.38 417.29 164.7 408.81 163.16 400.46 161.39 392.1 159.93 384.04 158.83 376.29 157.72 368.54 157.12 361.08 157.05 353.92 157.18 346.74 157.96 339.85 159.39 333.24 161.15 326.6 163.6 320.23 166.72 314.13 170.19 307.96 174.31 302.04 179.01 296.36 184 290.57 189.52 284.99 195.48 279.59 201.61 274.05 208.1 268.66 214.88 263.39 221.71 257.94 228.75 252.58 235.95 247.29 243.08 241.77 250.32 236.3 257.64 230.86 264.82 225.18 272.07 219.53 279.35 213.93 286.49 208.1 293.68 202.34 300.93 196.68 308.03 190.87 315.22 185.22 322.51 179.78 329.69 174.32 337 169.17 344.46 164.4 351.84 159.76 359.4 155.61 367.16 152.03 374.88 148.74 382.82 146.12 391 144.24 399.16 142.75 407.58 142.07 416.26 142.24" stroke-dasharray="10 5" transform="rotate(16.16, 400, 400)" opacity="0.86"></path><path d="M419.88 152.83C428.23 153.41 436.59 154.77 444.94 156.84 453.28 159.23 461.6 162.27 469.86 165.86 478.09 169.64 486.22 173.89 494.2 178.52 502.11 183.2 509.81 188.16 517.22 193.35 524.5 198.45 531.42 203.7 537.9 209.06 544.14 214.24 549.87 219.48 555 224.76 559.82 229.82 563.98 234.91 567.42 240.02 571.71 247.37 576.32 262.05 576.86 269.47 576.84 276.76 575.83 291.95 575.66 299.96 576.31 305.28 577.4 310.85 579.08 316.66 581.75 322.42 585.17 328.44 589.36 334.74 594.59 341 600.52 347.54 607.05 354.37 614.28 361.17 621.77 368.27 629.26 375.65 636.79 383.02 643.8 390.69 649.98 398.64 655.41 406.6 659.4 414.67 661.83 422.83 663.05 431 662.58 439.27 660.48 447.62 657.18 455.98 652.42 464.42 646.4 472.91 639.58 481.42 631.85 489.98 623.47 498.54 614.83 507.11 605.91 515.67 596.93 524.16 588.17 532.62 579.61 540.98 571.37 549.17 563.67 557.24 556.38 565.09 549.55 572.62 543.34 579.95 537.53 586.88 532.1 593.32 527.2 599.45 522.55 604.99 518.07 609.88 511.92 616.21 499.75 624.34 493.36 625.99 486.81 626.2 472.02 622.47 463.67 618.91 457.94 616.37 451.81 613.51 445.29 610.43 438.74 607.7 431.8 604.99 424.5 602.41 417.18 600.49 409.5 598.89 401.5 597.69 393.5 597.34 385.37 597.43 377.17 597.96 368.97 599.25 360.72 600.83 352.43 602.62 344.18 604.92 335.93 607.23 327.7 609.42 319.53 611.82 311.42 613.89 303.41 615.53 295.49 617.08 287.71 618.04 280.12 618.33 272.65 618.33 265.42 617.58 258.47 616.06 251.7 614.15 245.25 611.46 239.19 608.02 233.35 604.18 227.92 599.63 222.95 594.45 218.22 588.93 213.95 582.84 210.19 576.27 206.63 569.45 203.54 562.23 200.94 554.69 198.46 546.99 196.4 539.04 194.73 530.91 193.06 522.7 191.7 514.37 190.61 505.96 189.37 497.52 188.3 489.05 187.37 480.58 186.15 472.11 184.99 463.66 183.88 455.27 182.4 446.89 180.94 438.56 179.51 430.32 177.74 422.09 176.05 413.94 174.48 405.9 172.7 397.85 171.2 390.1 170.03 382.63 168.86 375.15 168.15 367.95 167.95 361.02 167.92 354.08 168.5 347.39 169.7 340.98 171.19 334.51 173.35 328.3 176.14 322.32 179.27 316.27 183.02 310.43 187.36 304.8 191.98 299.06 197.12 293.5 202.72 288.09 208.51 282.55 214.69 277.12 221.18 271.8 227.75 266.31 234.57 260.88 241.57 255.52 248.55 249.96 255.67 244.44 262.89 238.96 270.03 233.27 277.23 227.62 284.5 222.02 291.64 216.25 298.85 210.56 306.1 204.99 313.24 199.31 320.45 193.8 327.73 188.54 334.92 183.27 342.21 178.32 349.62 173.76 356.96 169.33 364.44 165.39 372.08 162.01 379.67 158.9 387.45 156.43 395.41 154.67 403.36 153.29 411.51 152.66 419.86 152.83" stroke-dasharray="0 2" transform="rotate(20.200000000000003, 400, 400)" opacity="0.85"></path><path d="M421.99 163.42C429.98 163.98 437.93 165.27 445.8 167.23 453.66 169.5 461.44 172.38 469.09 175.79 476.71 179.4 484.17 183.45 491.42 187.89 498.59 192.39 505.5 197.19 512.08 202.22 518.52 207.19 524.58 212.33 530.18 217.6 535.57 222.71 540.45 227.92 544.75 233.18 550.52 240.8 558.56 255.93 560.85 263.46 562.36 270.77 563.21 285.58 563.09 293.18 563.49 300.74 566.26 316.63 569.31 325.03 572.42 330.65 576.19 336.5 580.62 342.6 585.93 348.66 591.83 354.97 598.19 361.55 605.13 368.11 612.24 374.94 619.29 382.03 626.34 389.12 632.89 396.48 638.66 404.13 643.76 411.77 647.56 419.51 649.95 427.34 651.28 435.17 651.08 443.09 649.39 451.07 646.63 459.06 642.52 467.11 637.21 475.19 631.13 483.27 624.16 491.37 616.5 499.45 608.51 507.51 600.15 515.52 591.63 523.44 583.2 531.29 574.85 539.01 566.69 546.52 558.92 553.9 551.46 561.02 544.37 567.8 537.78 574.37 531.54 580.52 525.64 586.18 520.22 591.55 515.05 596.35 510.08 600.52 503.22 605.87 490.01 612.41 483.32 613.53 476.62 613.43 462.02 609.62 453.98 606.29 448.5 603.96 442.68 601.36 436.51 598.57 430.33 596.12 423.8 593.69 416.94 591.37 410.06 589.65 402.86 588.21 395.35 587.1 387.84 586.75 380.21 586.78 372.51 587.17 364.83 588.26 357.09 589.6 349.33 591.11 341.61 593.12 333.89 595.13 326.22 597.05 318.61 599.2 311.08 601.07 303.67 602.57 296.35 604.06 289.18 605.02 282.22 605.42 275.39 605.61 268.8 605.13 262.5 603.97 256.38 602.49 250.58 600.31 245.16 597.45 239.93 594.24 235.11 590.38 230.72 585.91 226.53 581.14 222.78 575.81 219.49 570.01 216.36 563.96 213.66 557.5 211.38 550.7 209.19 543.74 207.36 536.5 205.88 529.04 204.36 521.49 203.1 513.77 202.07 505.95 200.87 498.08 199.82 490.14 198.87 482.17 197.64 474.18 196.46 466.19 195.31 458.22 193.81 450.25 192.33 442.32 190.87 434.45 189.1 426.58 187.39 418.78 185.8 411.06 184.01 403.34 182.48 395.88 181.27 388.68 180.03 381.47 179.24 374.51 178.91 367.81 178.74 361.08 179.13 354.59 180.1 348.33 181.34 342.02 183.21 335.93 185.67 330.05 188.46 324.1 191.84 318.33 195.78 312.73 200.01 307.04 204.76 301.48 209.96 296.06 215.38 290.51 221.19 285.05 227.33 279.69 233.59 274.16 240.11 268.7 246.85 263.3 253.61 257.72 260.54 252.17 267.58 246.68 274.59 241.02 281.69 235.4 288.86 229.86 295.95 224.17 303.1 218.59 310.3 213.14 317.41 207.62 324.59 202.29 331.82 197.21 338.98 192.16 346.22 187.43 353.54 183.09 360.8 178.89 368.18 175.17 375.66 171.98 383.12 169.06 390.7 166.75 398.42 165.11 406.13 163.82 413.99 163.25 421.98 163.42" stroke-dasharray="6 3" transform="rotate(24.24, 400, 400)" opacity="0.69"></path><path d="M422.45 174.02C430.05 174.55 437.55 175.77 444.92 177.62 452.28 179.76 459.49 182.48 466.53 185.71 473.53 189.13 480.32 192.99 486.85 197.22 493.31 201.53 499.46 206.13 505.26 210.98 510.94 215.8 516.22 220.81 521.04 225.95 525.69 230.98 529.85 236.11 533.47 241.32 538.35 248.91 545.12 264.07 547.11 271.65 548.57 279.02 550.06 293.92 550.58 301.51 551.74 309.06 556.16 324.78 559.92 333.02 563.4 338.52 567.44 344.23 572.03 350.15 577.37 356.04 583.18 362.15 589.34 368.5 595.96 374.83 602.68 381.4 609.29 388.22 615.87 395.03 621.96 402.09 627.34 409.41 632.12 416.72 635.73 424.12 638.07 431.59 639.47 439.06 639.51 446.6 638.2 454.18 635.93 461.75 632.41 469.37 627.79 476.98 622.43 484.59 616.19 492.19 609.25 499.73 601.95 507.24 594.22 514.66 586.23 521.96 578.23 529.18 570.2 536.22 562.25 543.03 554.56 549.71 547.08 556.1 539.86 562.13 533.04 567.96 526.51 573.37 520.27 578.29 514.44 582.95 508.84 587.06 503.45 590.57 495.94 595.04 481.66 600.23 474.62 600.91 467.67 600.57 453.02 596.81 445.14 593.72 439.83 591.62 434.23 589.27 428.35 586.77 422.47 584.6 416.29 582.43 409.82 580.36 403.34 578.83 396.58 577.53 389.55 576.51 382.51 576.16 375.39 576.13 368.2 576.41 361.04 577.31 353.83 578.42 346.63 579.68 339.46 581.4 332.32 583.12 325.24 584.78 318.22 586.67 311.3 588.33 304.51 589.68 297.82 591.06 291.29 592 284.99 592.45 275.84 592.61 259.16 589.62 251.78 586.38 245.02 582.1 233.73 570.26 229.22 562.86 226.47 557.56 224.1 551.84 222.11 545.76 220.15 539.53 218.51 532.99 217.18 526.21 215.77 519.34 214.58 512.27 213.59 505.05 212.41 497.78 211.35 490.41 210.38 482.97 209.12 475.5 207.9 468 206.72 460.49 205.2 452.97 203.69 445.46 202.21 437.98 200.43 430.51 198.72 423.07 197.12 415.68 195.33 408.3 193.79 401.14 192.54 394.21 191.26 387.28 190.39 380.56 189.96 374.06 189.65 367.55 189.87 361.23 190.62 355.12 191.62 348.96 193.2 342.99 195.35 337.19 197.78 331.33 200.79 325.62 204.34 320.06 208.16 314.4 212.49 308.86 217.27 303.43 222.27 297.88 227.67 292.41 233.42 287.03 239.31 281.5 245.48 276.02 251.88 270.61 258.36 265.04 265.01 259.51 271.81 254.05 278.61 248.44 285.52 242.9 292.51 237.44 299.46 231.88 306.48 226.44 313.56 221.15 320.58 215.82 327.65 210.69 334.77 205.83 341.84 201.01 348.97 196.51 356.16 192.4 363.3 188.44 370.52 184.94 377.81 181.95 385.09 179.22 392.44 177.07 399.88 175.55 407.32 174.35 414.84 173.83 422.44 174.01" stroke-dasharray="5 4" transform="rotate(28.28, 400, 400)" opacity="0.24"></path><path d="M421.22 184.61C428.41 185.12 435.43 186.26 442.29 188.01 449.13 190.02 455.79 192.57 462.22 195.62 468.61 198.84 474.76 202.49 480.62 206.51 486.41 210.61 491.88 215.01 496.98 219.66 501.98 224.3 506.58 229.14 510.75 234.13 514.78 239.04 518.36 244.07 521.46 249.18 525.68 256.69 531.65 271.79 533.55 279.35 535.16 286.75 537.52 301.69 538.72 309.27 540.63 316.8 546.52 332.37 550.9 340.47 554.66 345.87 558.89 351.45 563.57 357.21 568.88 362.93 574.55 368.86 580.47 374.98 586.76 381.09 593.08 387.42 599.25 393.96 605.37 400.49 611.03 407.25 616.02 414.23 620.49 421.21 623.9 428.26 626.17 435.34 627.64 442.43 627.87 449.55 626.9 456.69 625.07 463.83 622.11 470.97 618.12 478.09 613.45 485.19 607.93 492.24 601.72 499.21 595.12 506.13 588.04 512.95 580.65 519.6 573.16 526.17 565.55 532.53 557.92 538.64 550.45 544.62 543.09 550.3 535.89 555.61 529 560.73 522.31 565.43 515.87 569.67 509.75 573.67 503.85 577.15 498.13 580.08 490.08 583.78 474.84 587.82 467.44 588.17 460.2 587.67 445.34 584.06 437.55 581.24 432.33 579.35 426.9 577.27 421.24 575.04 415.6 573.13 409.71 571.22 403.59 569.38 397.47 568.02 391.11 566.86 384.53 565.92 377.95 565.57 371.3 565.49 364.64 565.67 357.98 566.39 351.32 567.29 344.68 568.32 338.08 569.77 331.52 571.22 325.05 572.62 318.64 574.25 312.33 575.69 306.19 576.88 297.18 578.56 280.4 579.76 272.75 579.04 265.6 577.51 253.16 571.34 247.95 566.73 243.28 561.27 235.88 547.74 233.08 539.85 231.31 534.32 229.83 528.48 228.59 522.37 227.26 516.17 226.11 509.75 225.13 503.15 223.95 496.5 222.87 489.71 221.86 482.82 220.57 475.91 219.32 468.92 218.09 461.89 216.55 454.85 215.02 447.78 213.53 440.72 211.75 433.65 210.04 426.59 208.45 419.55 206.66 412.52 205.11 405.67 203.84 399.02 202.53 392.36 201.6 385.88 201.07 379.59 200.64 373.28 200.7 367.14 201.26 361.18 202.02 355.17 203.33 349.31 205.16 343.6 207.26 337.84 209.9 332.19 213.05 326.67 216.46 321.06 220.35 315.55 224.69 310.14 229.25 304.61 234.21 299.16 239.52 293.78 244.99 288.28 250.75 282.83 256.77 277.43 262.87 271.92 269.19 266.45 275.66 261.06 282.17 255.55 288.81 250.12 295.54 244.8 302.28 239.4 309.09 234.13 315.96 229.03 322.8 223.92 329.7 219.02 336.64 214.39 343.55 209.82 350.5 205.57 357.49 201.7 364.45 197.99 371.47 194.71 378.51 191.93 385.55 189.39 392.64 187.39 399.76 185.99 406.87 184.89 414.03 184.42 421.21 184.61" stroke-dasharray="11 5" transform="rotate(32.32, 400, 400)" opacity="0.19"></path><path d="M418.4 195.2C425.14 195.68 431.69 196.76 438.03 198.39 444.36 200.27 450.46 202.66 456.32 205.52 462.14 208.55 467.69 211.98 472.94 215.77 478.13 219.65 482.99 223.83 487.5 228.26 491.92 232.7 495.96 237.35 499.61 242.16 504.73 249.36 512.8 264.15 515.79 271.67 518.4 279.07 522.27 293.96 523.82 301.46 525.66 308.85 530.15 323.89 533.19 331.59 535.85 336.68 538.85 341.9 542.21 347.25 546.18 352.54 550.52 357.99 555.22 363.59 560.45 369.16 565.93 374.9 571.58 380.81 577.53 386.7 583.44 392.78 589.18 399.04 594.85 405.29 600.08 411.74 604.7 418.37 608.86 425 612.07 431.67 614.27 438.35 615.77 445.03 616.17 451.73 615.5 458.4 614.07 465.07 611.62 471.72 608.22 478.31 604.2 484.87 599.38 491.36 593.87 497.74 587.98 504.07 581.58 510.26 574.82 516.26 567.91 522.18 560.8 527.87 553.6 533.3 546.46 538.6 539.34 543.59 532.31 548.22 525.48 552.68 518.79 556.74 512.27 560.35 506.02 563.75 499.93 566.68 494.01 569.1 485.57 572.13 469.57 575.23 461.85 575.34 454.34 574.75 439.22 571.37 431.47 568.84 423.65 566.25 407.25 560.87 398.62 558.41 392.82 557.23 386.83 556.19 380.67 555.32 374.51 554.99 368.34 554.86 362.17 554.94 356.02 555.51 349.89 556.22 343.81 557.03 337.76 558.22 331.78 559.42 325.91 560.57 317.25 562.56 300.81 565.66 293.16 566.48 285.88 566.84 272.83 565.14 267.15 562.99 261.94 560.08 253.3 551.57 249.86 546.06 246.77 539.88 241.95 525.51 240.1 517.47 238.81 511.92 237.68 506.14 236.68 500.16 235.48 494.13 234.37 487.93 233.31 481.6 231.99 475.24 230.7 468.78 229.43 462.24 227.87 455.7 226.33 449.09 224.82 442.46 223.06 435.82 221.36 429.15 219.77 422.48 218 415.81 216.46 409.28 215.17 402.92 213.85 396.54 212.87 390.32 212.25 384.24 211.73 378.15 211.64 372.2 212.01 366.38 212.56 360.53 213.61 354.8 215.15 349.2 216.92 343.54 219.2 337.98 221.95 332.52 224.94 326.98 228.4 321.53 232.29 316.15 236.39 310.69 240.88 305.29 245.72 299.95 250.73 294.51 256.04 289.13 261.61 283.8 267.3 278.38 273.2 273.02 279.29 267.74 285.43 262.38 291.72 257.1 298.12 251.95 304.55 246.74 311.07 241.68 317.65 236.81 324.24 231.94 330.88 227.29 337.55 222.91 344.22 218.6 350.93 214.62 357.65 211 364.37 207.53 371.11 204.49 377.86 201.91 384.61 199.56 391.37 197.72 398.13 196.44 404.89 195.43 411.65 195.01 418.39 195.2" stroke-dasharray="1 4" transform="rotate(36.36, 400, 400)" opacity="0.41"></path><path d="M414.2 205.79C420.48 206.25 426.55 207.26 432.39 208.78 438.22 210.53 443.8 212.75 449.12 215.41 459.69 221.21 469.09 228.45 477.17 236.79 485.03 245.24 491.49 254.44 496.51 264.14 501.41 273.56 505.12 283.33 507.83 293.32 511.07 302.9 514.01 312.75 517.08 322.83 521.68 332.58 527.18 342.71 533.83 353.22 542.48 363.55 552.26 374.41 562.67 385.8 568.25 391.47 573.76 397.29 579.07 403.26 584.3 409.23 589.12 415.35 593.38 421.62 597.23 427.9 600.25 434.17 602.36 440.44 603.87 446.7 604.42 452.94 604 459.13 601.22 471.5 594.89 483.61 585.69 495.22 574.96 506.64 562.51 517.33 549.16 527 535.79 536.2 522.37 544.1 509.32 550.38 497.01 555.97 485.18 559.79 473.86 561.69 463.22 562.97 452.78 562.51 442.41 560.47 432.37 558.43 422.06 555.41 411.42 551.78 403.43 549.62 386.85 545.98 378.27 544.73 369.64 544.32 352.59 544.93 344.24 545.82 333.22 548.05 322.64 550.09 312.73 551.61 303.05 553.52 294.2 554.23 286.39 553.51 278.89 552.45 272.51 549.65 267.35 545.15 262.36 540.05 258.47 533.31 255.61 525.16 252.5 516.55 250.09 506.75 248.21 496.04 245.54 485.12 243.06 473.51 240.72 461.45 239.15 455.41 237.6 449.28 236.09 443.08 234.34 436.88 232.66 430.62 231.09 424.32 229.35 418.03 227.83 411.84 226.54 405.77 225.21 399.69 224.19 393.73 223.51 387.89 222.39 376.15 222.98 364.82 225.31 353.89 228.46 342.8 233.46 331.98 240.11 321.47 247.58 310.67 256.49 300.06 266.54 289.73 277.08 279.11 288.47 268.77 300.41 258.91 312.54 248.96 325.04 239.69 337.71 231.4 350.42 223.46 363.25 216.84 376.04 211.9 382.44 209.74 388.84 208.06 395.2 206.89 401.57 205.98 407.91 205.6 414.19 205.79" stroke-dasharray="4 3" transform="rotate(40.400000000000006, 400, 400)" opacity="0.83"></path><path d="M408.93 216.38C420.56 217.48 431.29 220.54 440.99 225.3 450.61 230.68 459.11 237.44 466.4 245.26 473.55 253.24 479.49 262 484.23 271.27 489.02 280.37 492.87 289.86 496.03 299.58 499.8 309 503.45 318.67 507.34 328.56 512.62 338.17 518.71 348.1 525.72 358.33 534.39 368.4 543.88 378.91 553.74 389.82 564.22 400.68 573.97 412.04 582.05 423.84 588.76 435.63 592.26 447.33 592.41 458.75 590.35 470.13 585.08 481.16 577.17 491.59 567.79 501.84 556.67 511.32 544.49 519.75 532.09 527.78 519.38 534.55 506.79 539.83 494.69 544.54 482.91 547.67 471.54 549.11 460.72 550.1 450.14 549.59 439.72 547.73 429.61 545.98 419.4 543.39 409.07 540.25 398.82 538.07 388.27 535.96 377.5 534.14 366.72 533.91 356.21 534.13 346.12 534.67 336.09 536.44 326.58 538.03 317.79 539.17 309.15 540.74 301.34 541.31 294.51 540.67 287.89 539.83 282.28 537.49 277.75 533.65 273.28 529.37 269.73 523.59 267.07 516.49 264.08 509.01 261.67 500.36 259.71 490.79 256.97 481.03 254.4 470.51 251.97 459.45 248.58 448.35 245.33 436.81 242.41 424.99 238.9 413.17 236.32 401.64 234.85 390.46 233.57 379.24 233.83 368.29 235.67 357.67 238.21 346.92 242.44 336.37 248.22 326.09 254.74 315.59 262.65 305.28 271.68 295.25 281.21 285.02 291.62 275.12 302.62 265.72 313.86 256.32 325.52 247.61 337.36 239.88 349.3 232.52 361.35 226.42 373.34 221.9 385.36 218.16 397.28 216.25 408.92 216.38" stroke-dasharray="2 9" transform="rotate(44.44, 400, 400)" opacity="0.19"></path><path d="M402.98 226.97C413.69 227.99 423.51 230.81 432.36 235.19 441.15 240.15 448.92 246.41 455.61 253.68 462.24 261.16 467.86 269.41 472.52 278.21 477.33 286.91 481.46 296.02 485.12 305.4 489.42 314.55 493.74 323.96 498.33 333.57 504.15 342.96 510.64 352.62 517.86 362.51 526.4 372.28 535.51 382.38 544.76 392.78 554.44 403.14 563.36 413.87 570.73 424.9 576.93 435.93 580.3 446.73 580.74 457.18 579.3 467.58 575.01 477.54 568.29 486.84 560.23 495.98 550.43 504.31 539.5 511.62 528.19 518.58 516.38 524.36 504.49 528.78 492.85 532.76 481.37 535.32 470.2 536.42 459.43 537.22 448.88 536.74 438.56 535.1 428.49 533.64 418.46 531.46 408.46 528.79 398.53 526.98 388.5 525.18 378.42 523.55 368.33 523.29 358.66 523.33 349.5 523.6 340.37 524.95 331.84 526.11 324.03 526.88 316.32 528.11 309.41 528.49 303.42 527.85 295.04 526.14 282.78 515.73 278.58 507.06 275.65 500.58 273.2 492.99 271.13 484.48 268.32 475.79 265.67 466.32 263.17 456.25 259.8 446.12 256.6 435.48 253.73 424.46 250.33 413.44 247.78 402.56 246.25 391.93 244.85 381.26 244.83 370.78 246.23 360.54 248.2 350.2 251.72 340.01 256.66 330.06 262.25 319.95 269.16 310.03 277.14 300.4 285.62 290.66 294.97 281.27 304.94 272.4 315.19 263.6 325.88 255.5 336.8 248.35 347.84 241.58 359.01 236.02 370.1 231.92 381.25 228.53 392.27 226.81 402.98 226.97" stroke-dasharray="7 4" transform="rotate(48.48, 400, 400)" opacity="0.33"></path><path d="M396.81 237.57C406.61 238.5 415.59 241.08 423.69 245.09 431.76 249.62 438.93 255.37 445.2 262.08 451.47 269.02 456.92 276.73 461.63 284.98 466.57 293.21 471.03 301.87 475.19 310.81 479.98 319.6 484.86 328.66 490.01 337.89 496.2 346.97 502.94 356.28 510.2 365.77 518.5 375.16 527.13 384.8 535.74 394.64 544.62 404.45 552.72 414.52 559.41 424.76 565.1 434.99 568.32 444.92 568.99 454.4 568.08 463.84 564.66 472.76 559.05 481 552.23 489.09 543.75 496.37 534.1 502.66 523.97 508.69 513.21 513.61 502.19 517.3 491.25 520.68 480.31 522.81 469.56 523.67 459.08 524.36 448.77 523.96 438.7 522.58 428.83 521.41 419.07 519.63 409.45 517.39 399.9 515.93 390.38 514.41 380.96 512.96 371.53 512.67 362.63 512.57 354.31 512.59 345.99 513.56 338.31 514.34 331.36 514.76 321.37 515.73 305.45 513.55 299.53 509.77 295.73 506.67 292.6 502.38 290.09 496.99 287.17 491.38 284.65 484.73 282.46 477.18 279.59 469.49 276.86 461.01 274.31 451.88 270.99 442.7 267.85 432.95 265.05 422.74 261.77 412.53 259.29 402.36 257.73 392.33 256.24 382.28 255.99 372.32 257 362.54 258.46 352.69 261.32 342.96 265.46 333.44 270.17 323.82 276.09 314.38 283.04 305.26 290.44 296.08 298.71 287.27 307.6 279 316.78 270.85 326.43 263.39 336.33 256.85 346.37 250.68 356.57 245.64 366.72 241.95 376.92 238.9 387.02 237.38 396.81 237.57" stroke-dasharray="7 3" transform="rotate(52.52, 400, 400)" opacity="0.27"></path><path d="M390.89 248.16C399.8 249.02 408.01 251.35 415.47 254.98 422.91 259.09 429.61 264.32 435.57 270.46 441.58 276.83 446.97 283.95 451.81 291.61 456.91 299.29 461.69 307.43 466.3 315.85 471.49 324.19 476.8 332.8 482.34 341.57 488.75 350.25 495.55 359.12 502.71 368.12 510.65 377.05 518.74 386.17 526.66 395.4 534.75 404.62 542.06 413.99 548.09 423.42 553.28 432.85 556.33 441.9 557.17 450.44 556.71 458.95 554.06 466.89 549.46 474.14 543.79 481.27 536.57 487.6 528.2 493.01 519.31 498.21 509.69 502.41 499.69 505.52 489.63 508.41 479.44 510.22 469.32 510.94 459.35 511.59 449.49 511.31 439.84 510.19 430.33 509.32 420.97 507.9 411.8 506.07 402.7 504.91 393.71 503.64 384.93 502.36 376.14 502.06 367.94 501.84 360.36 501.66 352.78 502.29 345.84 502.72 339.6 502.82 330.59 503.34 316.17 501 310.69 497.59 305.56 493.02 297.28 478.64 293.67 469.04 290.74 462.26 287.97 454.69 285.38 446.46 282.13 438.19 279.08 429.32 276.38 419.93 273.24 410.55 270.84 401.11 269.28 391.73 267.74 382.34 267.3 372.98 267.97 363.75 268.99 354.48 271.25 345.3 274.67 336.3 278.54 327.26 283.53 318.41 289.48 309.87 295.82 301.33 302.99 293.17 310.79 285.56 318.86 278.09 327.41 271.29 336.26 265.37 345.25 259.81 354.42 255.28 363.59 252.01 372.81 249.29 381.97 247.96 390.89 248.16" stroke-dasharray="7 9" transform="rotate(56.56, 400, 400)" opacity="0.15"></path><path d="M385.64 258.75C393.71 259.53 401.21 261.63 408.09 264.89 414.98 268.57 421.29 273.28 427.03 278.84 432.86 284.62 438.23 291.11 443.21 298.14 448.45 305.23 453.5 312.76 458.45 320.59 463.92 328.39 469.5 336.46 475.27 344.68 481.71 352.85 488.43 361.2 495.34 369.64 502.82 378.04 510.32 386.56 517.54 395.14 524.83 403.7 531.38 412.34 536.77 420.96 541.47 429.57 544.32 437.75 545.28 445.39 545.2 453 543.2 460.03 539.51 466.38 534.91 472.63 528.88 478.13 521.74 482.78 514.1 487.27 505.68 490.87 496.79 493.52 487.76 496.03 478.48 497.61 469.16 498.26 459.9 498.92 450.67 498.78 441.61 497.94 432.63 497.34 423.79 496.27 415.17 494.81 406.59 493.92 398.19 492.89 390.03 491.77 381.88 491.46 374.33 491.14 367.41 490.79 357.32 491.19 340.32 491.15 333.44 490.1 327.05 488.54 316.87 481.33 312.79 475.52 309.83 471.25 307.15 466.13 304.74 460.23 301.78 454.24 298.99 447.52 296.39 440.14 293.23 432.74 290.29 424.72 287.7 416.16 284.73 407.6 282.44 398.93 280.9 390.26 279.35 381.59 278.76 372.9 279.15 364.3 279.8 355.68 281.53 347.13 284.29 338.76 287.41 330.38 291.53 322.19 296.53 314.31 301.87 306.48 307.98 299.02 314.7 292.1 321.66 285.35 329.12 279.23 336.89 273.94 344.8 268.97 352.93 264.97 361.11 262.09 369.35 259.69 377.57 258.54 385.64 258.75" stroke-dasharray="9 6" transform="rotate(60.599999999999994, 400, 400)" opacity="0.40"></path><path d="M381.48 269.34C388.73 270.04 395.57 271.91 401.94 274.81 408.33 278.07 414.3 282.26 419.85 287.23 425.5 292.41 430.84 298.25 435.92 304.6 441.24 311.05 446.46 317.92 451.63 325.09 457.22 332.27 462.92 339.72 468.72 347.32 475.04 354.89 481.53 362.63 488.07 370.43 495.01 378.21 501.85 386.08 508.35 393.95 514.86 401.82 520.67 409.7 525.45 417.49 529.67 425.28 532.31 432.61 533.34 439.4 533.54 446.16 532.12 452.35 529.22 457.89 525.57 463.35 520.64 468.12 514.68 472.12 508.26 476.02 501.05 479.13 493.32 481.42 485.4 483.63 477.16 485.06 468.78 485.71 460.39 486.4 451.95 486.43 443.62 485.85 435.32 485.51 427.13 484.75 419.14 483.62 411.19 482.98 403.41 482.15 395.89 481.18 388.37 480.87 381.43 480.47 375.11 479.99 365.88 480.01 350.29 479.2 343.9 477.92 337.89 476.28 327.99 469.61 323.85 464.43 320.87 460.67 318.13 456.16 315.64 450.94 312.69 445.66 309.91 439.71 307.34 433.13 304.29 426.53 301.48 419.34 299.02 411.61 296.23 403.88 294.07 396 292.58 388.09 291.05 380.17 290.37 372.21 290.53 364.32 290.88 356.43 292.16 348.59 294.34 340.92 296.79 333.28 300.13 325.82 304.26 318.67 308.65 311.59 313.77 304.88 319.47 298.69 325.36 292.66 331.75 287.23 338.48 282.57 345.32 278.2 352.42 274.69 359.64 272.19 366.9 270.11 374.22 269.12 381.48 269.34" stroke-dasharray="8 9" transform="rotate(64.64, 400, 400)" opacity="0.11"></path><path d="M378.7 279.93C385.19 280.55 391.39 282.19 397.28 284.74 403.19 287.59 408.82 291.27 414.18 295.64 419.62 300.22 424.89 305.4 429.98 311.05 435.28 316.81 440.54 322.98 445.77 329.44 451.32 335.93 456.94 342.68 462.62 349.58 468.67 356.48 474.78 363.53 480.84 370.62 487.17 377.72 493.33 384.87 499.1 391.99 504.84 399.11 509.94 406.2 514.13 413.17 517.88 420.14 520.29 426.64 521.35 432.63 521.29 441.3 513.83 455.65 507 461.17 501.72 464.58 495.69 467.3 489.13 469.31 482.37 471.3 475.22 472.63 467.87 473.31 460.47 474.06 452.95 474.25 445.46 473.92 437.98 473.82 430.55 473.33 423.27 472.5 416.02 472.06 408.92 471.42 402.05 470.59 392.01 470.06 374.62 468.96 367.22 468.16 360.24 467.5 348.52 464.26 343.64 461.39 338.82 457.99 330.27 447.98 326.36 441.37 323.45 436.72 320.71 431.47 318.2 425.64 315.31 419.79 312.66 413.4 310.34 406.5 307.75 399.6 305.74 392.53 304.33 385.4 302.86 378.29 302.12 371.11 302.11 363.99 302.22 356.88 303.13 349.82 304.82 342.92 306.7 336.07 309.35 329.39 312.7 323.02 316.25 316.74 320.45 310.8 325.2 305.35 330.1 300.06 335.48 295.32 341.21 291.27 347.04 287.48 353.15 284.46 359.44 282.32 365.76 280.54 372.21 279.71 378.7 279.93" stroke-dasharray="2 7" transform="rotate(68.68, 400, 400)" opacity="0.43"></path><path d="M377.53 290.53C389.03 291.92 399.95 296.73 410.08 304.11 420.53 312.19 430.76 322.35 440.75 333.7 451.68 345.25 462.84 357.72 473.63 370.38 485.04 383.07 495.3 395.92 502.81 408.22 508.96 420.52 510.47 431.02 507.68 439.39 503.04 447.65 494.76 453.69 484.12 457.32 472.7 460.98 459.86 462.56 446.75 462.18 433.59 462.58 420.44 461.81 408.06 460 395.67 459.83 385.07 458.83 376.35 457.02 367.38 456.23 359.93 453.87 354 449.79 347.32 445.93 341.6 439.89 336.88 431.75 330.93 423.56 325.68 413.24 321.66 401.07 316.76 388.9 314.13 376.12 313.87 363.49 313.84 350.94 316.61 338.66 321.85 327.46 327.62 316.6 335.65 307.17 345.22 300.06 355.04 293.83 366.03 290.4 377.53 290.53" stroke-dasharray="9 1" transform="rotate(72.72, 400, 400)" opacity="0.81"></path><path d="M378.04 301.12C388.11 302.29 398.02 306.36 407.51 312.63 417.23 319.49 426.95 328.19 436.45 337.98 446.59 347.98 456.77 358.84 466.38 369.88 476.33 380.98 485.11 392.19 491.49 402.87 496.85 413.55 498.41 422.61 496.46 429.81 493.15 436.96 486.74 442.24 478.19 445.53 468.96 448.92 458.3 450.59 447.14 450.62 435.88 451.3 424.43 450.88 413.46 449.4 402.48 449.17 392.93 448.03 384.9 446.08 376.66 444.94 369.63 442.46 363.83 438.56 357.43 434.9 351.84 429.46 347.17 422.3 341.57 415.13 336.68 406.16 332.98 395.6 328.59 385.04 326.19 373.95 325.81 363.02 325.51 352.17 327.55 341.62 331.7 332.06 336.17 322.83 342.62 314.88 350.56 308.96 358.65 303.76 367.97 300.93 378.04 301.12" stroke-dasharray="9 0" transform="rotate(76.76, 400, 400)" opacity="0.31"></path><path d="M380.21 311.71C388.89 312.67 397.7 316.03 406.33 321.23 415.13 326.9 424.03 334.14 432.72 342.35 441.79 350.76 450.78 359.95 459.08 369.33 467.52 378.76 474.86 388.3 480.17 397.38 484.74 406.46 486.26 414.16 484.99 420.31 482.75 426.44 477.96 431.05 471.31 434.04 464.12 437.16 455.56 438.9 446.35 439.25 437.04 440.12 427.35 439.99 417.85 438.81 408.34 438.54 399.88 437.34 392.58 435.35 385.12 433.98 378.57 431.46 373.02 427.79 367.02 424.35 361.69 419.47 357.22 413.23 352.08 407 347.63 399.31 344.31 390.33 340.45 381.35 338.32 371.97 337.89 362.77 337.44 353.65 338.93 344.83 342.17 336.92 345.58 329.27 350.7 322.76 357.18 317.98 363.74 313.74 371.52 311.48 380.21 311.71" stroke-dasharray="9 3" transform="rotate(80.80000000000001, 400, 400)" opacity="0.70"></path><path d="M383.86 322.3C391.16 323.07 398.75 325.75 406.31 329.92 413.99 334.44 421.79 340.27 429.37 346.91 437.17 353.73 444.77 361.22 451.68 368.91 458.61 376.66 464.56 384.51 468.84 392.02 473.33 402.72 470.16 418.24 463.47 422.93 458.11 425.77 451.5 427.49 444.19 428.08 436.78 429.05 428.87 429.12 420.89 428.22 412.92 427.93 405.62 426.76 399.15 424.84 392.57 423.35 386.65 420.9 381.51 417.53 376.05 414.35 371.16 410.06 367.03 404.71 362.45 399.4 358.53 392.96 355.63 385.53 352.34 378.1 350.52 370.42 350.11 362.94 349.62 355.52 350.7 348.42 353.21 342.11 355.78 336 359.77 330.85 364.97 327.13 370.19 323.8 376.56 322.06 383.86 322.3" stroke-dasharray="2 1" transform="rotate(84.84, 400, 400)" opacity="1.00"></path><path d="M388.72 332.89C400.54 334.39 413.86 341.61 426.24 351.74 438.98 362.37 450.66 375.12 457.52 387.04 463.14 398.95 461.56 407.63 454.71 412.29 446.89 417.36 435.17 419.34 422.37 417.63 409.57 417.47 398.09 413.92 389.21 407.85 379.57 402.33 371.5 393.24 366.95 381.43 361.39 369.62 360.84 357.42 364.69 347.7 368.53 338.56 376.89 332.75 388.72 332.89" stroke-dasharray="8 9" transform="rotate(88.88, 400, 400)" opacity="0.50"></path><path d="M394.43 343.49C403.42 344.5 413.68 349.64 423.13 356.92 432.69 364.52 441.26 373.81 446.2 382.69 450.07 394.92 435.87 407.23 422.17 407.04 412.57 406.77 403.46 403.73 396.12 398.77 388.4 394.15 381.91 387.04 378.27 378.23 374.05 369.41 373.63 360.6 376.48 353.76 379.25 347.27 385.44 343.25 394.43 343.49" stroke-dasharray="1 8" transform="rotate(92.92, 400, 400)" opacity="0.43"></path><path d="M400.56 354.08C412.73 355.63 428.34 367.39 434.88 379.17 440.23 390.94 433.04 398.1 420.3 396.44 407.55 396.29 394.41 387.78 389.59 376.07 383.71 364.34 388.39 353.93 400.56 354.08" stroke-dasharray="8 8" transform="rotate(96.96, 400, 400)" opacity="0.79"></path></g></svg>