<svg xmlns="http://www.w3.org/2000/svg" version="1.1" xmlns:xlink="http://www.w3.org/1999/xlink" xmlns:svgjs="http://svgjs.dev/svgjs" viewBox="0 0 800 800" opacity="0.23"><defs><linearGradient x1="50%" y1="0%" x2="50%" y2="100%" id="cccoil-grad"><stop stop-color="hsl(206, 75%, 49%)" stop-opacity="1" offset="0%"></stop><stop stop-color="hsl(331, 90%, 56%)" stop-opacity="1" offset="100%"></stop></linearGradient></defs><g stroke="url(#cccoil-grad)" fill="none" stroke-linecap="round"><circle r="555" cx="400" cy="400" stroke-width="7" stroke-dasharray="0 3487" transform="rotate(360, 400, 400)" opacity="0.05"></circle><circle r="518" cx="400" cy="400" stroke-width="7" stroke-dasharray="102 3255" transform="rotate(334, 400, 400)" opacity="0.12"></circle><circle r="481" cx="400" cy="400" stroke-width="7" stroke-dasharray="190 3022" transform="rotate(309, 400, 400)" opacity="0.19"></circle><circle r="444" cx="400" cy="400" stroke-width="7" stroke-dasharray="263 2790" transform="rotate(283, 400, 400)" opacity="0.25"></circle><circle r="407" cx="400" cy="400" stroke-width="7" stroke-dasharray="321 2557" transform="rotate(257, 400, 400)" opacity="0.32"></circle><circle r="370" cx="400" cy="400" stroke-width="7" stroke-dasharray="365 2325" transform="rotate(231, 400, 400)" opacity="0.39"></circle><circle r="333" cx="400" cy="400" stroke-width="7" stroke-dasharray="395 2092" transform="rotate(206, 400, 400)" opacity="0.46"></circle><circle r="296" cx="400" cy="400" stroke-width="7" stroke-dasharray="409 1860" transform="rotate(180, 400, 400)" opacity="0.53"></circle><circle r="259" cx="400" cy="400" stroke-width="7" stroke-dasharray="409 1627" transform="rotate(154, 400, 400)" opacity="0.59"></circle><circle r="222" cx="400" cy="400" stroke-width="7" stroke-dasharray="395 1395" transform="rotate(129, 400, 400)" opacity="0.66"></circle><circle r="185" cx="400" cy="400" stroke-width="7" stroke-dasharray="365 1162" transform="rotate(103, 400, 400)" opacity="0.73"></circle><circle r="148" cx="400" cy="400" stroke-width="7" stroke-dasharray="321 930" transform="rotate(77, 400, 400)" opacity="0.80"></circle><circle r="111" cx="400" cy="400" stroke-width="7" stroke-dasharray="263 697" transform="rotate(51, 400, 400)" opacity="0.86"></circle><circle r="74" cx="400" cy="400" stroke-width="7" stroke-dasharray="190 465" transform="rotate(26, 400, 400)" opacity="0.93"></circle><circle r="37" cx="400" cy="400" stroke-width="7" stroke-dasharray="102 232" opacity="1.00"></circle></g></svg>