<svg xmlns="http://www.w3.org/2000/svg" version="1.1" xmlns:xlink="http://www.w3.org/1999/xlink" xmlns:svgjs="http://svgjs.dev/svgjs" viewBox="0 0 1422 800" opacity="0.58"><defs><linearGradient x1="50%" y1="0%" x2="50%" y2="100%" id="oooscillate-grad"><stop stop-color="hsl(206, 75%, 49%)" stop-opacity="1" offset="0%"></stop><stop stop-color="hsl(331, 90%, 56%)" stop-opacity="1" offset="100%"></stop></linearGradient></defs><g stroke-width="2.5" stroke="url(#oooscillate-grad)" fill="none" stroke-linecap="round"><path d="M 0 1066 Q 355.5 195 711 400 Q 1066.5 605 1422 1066" stroke-dasharray="6 2" opacity="0.05"></path><path d="M 0 1025 Q 355.5 195 711 400 Q 1066.5 605 1422 1025" stroke-dasharray="3 6" opacity="0.09"></path><path d="M 0 984 Q 355.5 195 711 400 Q 1066.5 605 1422 984" stroke-dasharray="8 0" opacity="0.13"></path><path d="M 0 943 Q 355.5 195 711 400 Q 1066.5 605 1422 943" stroke-dasharray="2 6" opacity="0.16"></path><path d="M 0 902 Q 355.5 195 711 400 Q 1066.5 605 1422 902" stroke-dasharray="4 0" opacity="0.20"></path><path d="M 0 861 Q 355.5 195 711 400 Q 1066.5 605 1422 861" stroke-dasharray="2 1" opacity="0.24"></path><path d="M 0 820 Q 355.5 195 711 400 Q 1066.5 605 1422 820" stroke-dasharray="1 5" opacity="0.28"></path><path d="M 0 779 Q 355.5 195 711 400 Q 1066.5 605 1422 779" stroke-dasharray="2 7" opacity="0.32"></path><path d="M 0 738 Q 355.5 195 711 400 Q 1066.5 605 1422 738" stroke-dasharray="1 6" opacity="0.35"></path><path d="M 0 697 Q 355.5 195 711 400 Q 1066.5 605 1422 697" stroke-dasharray="4 5" opacity="0.39"></path><path d="M 0 656 Q 355.5 195 711 400 Q 1066.5 605 1422 656" stroke-dasharray="8 7" opacity="0.43"></path><path d="M 0 615 Q 355.5 195 711 400 Q 1066.5 605 1422 615" stroke-dasharray="6 8" opacity="0.47"></path><path d="M 0 574 Q 355.5 195 711 400 Q 1066.5 605 1422 574" stroke-dasharray="7 5" opacity="0.51"></path><path d="M 0 533 Q 355.5 195 711 400 Q 1066.5 605 1422 533" stroke-dasharray="7 4" opacity="0.54"></path><path d="M 0 492 Q 355.5 195 711 400 Q 1066.5 605 1422 492" stroke-dasharray="4 6" opacity="0.58"></path><path d="M 0 451 Q 355.5 195 711 400 Q 1066.5 605 1422 451" stroke-dasharray="2 5" opacity="0.62"></path><path d="M 0 410 Q 355.5 195 711 400 Q 1066.5 605 1422 410" stroke-dasharray="6 7" opacity="0.66"></path><path d="M 0 369 Q 355.5 195 711 400 Q 1066.5 605 1422 369" stroke-dasharray="5 2" opacity="0.70"></path><path d="M 0 328 Q 355.5 195 711 400 Q 1066.5 605 1422 328" stroke-dasharray="6 8" opacity="0.73"></path><path d="M 0 287 Q 355.5 195 711 400 Q 1066.5 605 1422 287" stroke-dasharray="3 5" opacity="0.77"></path><path d="M 0 246 Q 355.5 195 711 400 Q 1066.5 605 1422 246" stroke-dasharray="4 6" opacity="0.81"></path><path d="M 0 205 Q 355.5 195 711 400 Q 1066.5 605 1422 205" stroke-dasharray="3 2" opacity="0.85"></path><path d="M 0 164 Q 355.5 195 711 400 Q 1066.5 605 1422 164" stroke-dasharray="3 8" opacity="0.89"></path><path d="M 0 123 Q 355.5 195 711 400 Q 1066.5 605 1422 123" stroke-dasharray="0 4" opacity="0.92"></path><path d="M 0 82 Q 355.5 195 711 400 Q 1066.5 605 1422 82" stroke-dasharray="4 4" opacity="0.96"></path></g></svg>