<svg xmlns="http://www.w3.org/2000/svg" version="1.1" xmlns:xlink="http://www.w3.org/1999/xlink" xmlns:svgjs="http://svgjs.dev/svgjs" viewBox="0 0 1422 800" opacity="0.24"><defs><linearGradient x1="50%" y1="0%" x2="50%" y2="100%" id="ssscribble-grad"><stop stop-color="hsl(162, 100%, 58%)" stop-opacity="1" offset="0%"></stop><stop stop-color="hsl(270, 73%, 53%)" stop-opacity="1" offset="100%"></stop></linearGradient></defs><g fill="none" stroke-width="1.5" stroke="url(#ssscribble-grad)" stroke-linecap="round"><path d="M1023.89 321.25C1224.24 354.11 1386.83 407.39 1381.83 480.09 1218.41 553.34 1020.91 643.47 923.06 739.33 975.01 816.07 1122.3 867.65 1259.2 868.92 1314.8 819.93 1255.12 721.54 1120.49 607.51 957.58 543.56 827.59 565.23 754.14 692.93 735.97 874.53 758.39 1026.29 793.82 1052.41 858.14 845.32 884.72 803.31 845.09 1076.13 812.23 1077.85 761.59 907.05 692.37 710.05 620.47 634.11 528.36 724 423.26 893.79 330.89 1027.08 254.34 1028.11 221.87 907.06 244.67 726.51 327.49 577.4 447.33 509.61 538.89 529.86 559.61 607.02 469.78 693.76 210.29 792.64 209.04 754.3 449.17 675.56 441.49 615.73 272.24 566.33 71.89 533.47 12.4 500.6 143.74 485.83 349.8 483.69 474.42 475.32 433.79 465.83 279.68 438.89 120.75 384.13 72.28 292.07 154.14 161.53 321.86 24.13 488.97 -100.21 591.63 -163.54 610.03 -138.83 558.52 -28.7 480.08 117.63 392.9 204.48 337.47 174 319.93 16.65 327.94 -177.23 361.31 -285.84 404.25 -222.63 454.5 -38.33 499.42 125.83 532.28 124.16 565.15 -50.36 584.4 -240.25 596.12 -290.01 615.14 -166.49 641.55 35.82 690.47 175.21 764.95 173.21 874.49 50.92 1012.32 -96.45 1141.42 -189.95 1240.12 -172.67 1264.81 -65.65 1205.23 91.44 1077.09 237 943.58 336.65 895.91 386.02 973.83 388.56 1156.84 368.77 1335.04 329.85 1394.41 299.5 1282.51 288.22 1089.13 277.5 964.41 288.38 1023.85 321.24Q1023.89 321.25 1023.89 321.25" opacity="0.22"></path><path d="M989.89 536.6C1174.7 567.12 1337.4 612.81 1364.1 668.27 1242.37 718.37 1053.92 766.5 914.25 797.98 891.86 805.23 982.94 777.14 1118.91 708.88 1235.86 627.39 1270.23 542.22 1218.62 493.1 1101.46 517.72 962.13 622.95 838.83 787.87 741.11 942.98 684.95 1022.84 659.75 976.15 661.83 751.99 665.28 788.37 629.32 1042.13 598.81 1050.54 550.12 903.49 487.78 712.87 429.46 603.28 367.28 637.67 315.66 774.77 287.98 930.55 293.89 1004.97 344.58 966.38 420.85 835.95 516.37 674.42 593.55 542.44 605.16 467.62 534.61 461.23 385.89 499.64 218.14 569.66 99.7 635.2 99.72 679.15 302.57 714.6 375.14 670.96 105.89 626.62 43.86 596.1 150.31 564.19 340.71 526.26 488.8 481.9 504.03 420.43 396.57 335.09 235.74 238.26 126.78 122.47 122.75 5.42 220.62 -80.02 374.15 -117.45 520.79 -82.64 646.03 72 569.18 189.3 490.83 -39.71 448.19 -199.19 430.63 -250.98 434.52 -153.2 444.02 25.63 466.13 166.52 496.64 158.16 527.16 -0.86 564.62 -184.1 612.66 -259.91 666.31 -182.69 739.38 -4.54 834.89 161.61 935.57 230.67 1046.93 178.2 1147.25 54.87 1207.03 -78.29 1211.42 -147.34 1145.9 -131.97 1039.26 -42.86 921.9 86.1 855.79 214.63 891.57 329.91 1027.87 408.26 1211.07 453.89 1340.92 475.29 1343.08 482.67 1206.8 490.11 1028.17 492.19 927.87 506.08 989.85 536.59Q989.89 536.6 989.89 536.6" opacity="0.39"></path><path d="M955.89 626.36C1204.78 667.16 1176.99 708.09 935.95 678 851.39 639.19 871.27 578.71 966.05 508.77 1093.63 460.68 1189.61 444.05 1223.21 483.91 1192.47 582.59 1108.3 727.03 1000.94 876.28 882.26 971.19 780.06 974.42 702.21 874.66 639.7 726.17 597.35 600.68 566.41 578.78 541.26 684.98 516.81 864.37 488.65 1008.13 460.48 1022.22 429.93 898.72 401.96 720.53 379.77 588.25 370.88 570.79 384.59 660.64 413.62 807.38 469.44 926.07 544.71 964.83 608.65 914.37 652.38 795.96 646.21 656.82 575.7 526.8 446.32 440.46 289.41 401.25 165.3 403.58 120.16 431.23 184.07 464.18 396.45 519.68 391.64 544.84 139.89 511.41 76.39 483.24 159.15 438.76 329.1 378.15 488.71 315.99 551.53 236.98 499.55 146.56 366.39 64.79 231.82 -9.23 158.89 -54.98 170.17 -59.18 261.17 -13.28 391.3 79.82 530.4 182.04 638.43 267.05 703.18 288.2 727.58 220.12 720.17 76.18 699.77 -91.2 665.86 -201.7 640.26 -200.3 630.71 -78.92 621.11 88.38 629.91 206.21 658.06 192.16 686.23 48.42 732.43 -125.26 795.14 -220.63 857.81 -187.89 934.65 -46.37 1017.37 122.76 1086.6 243.18 1140.4 265.23 1159.43 199.66 1138.1 79.73 1070.51 -31.31 968.33 -93.08 875.11 -96.02 817.49 -38.96 835.52 52.53 937.76 165.88 1097.59 272.75 1251.4 360.37 1324.05 437.08 1277.29 492.69 1128.56 533.32 969.49 568.46 892.4 598.18 955.85 626.35Q955.89 626.36 955.89 626.36" opacity="0.27"></path><path d="M921.89 507.99C1151.93 538.58 1200.54 515.46 980.25 463.78 855.57 431.12 807.86 399.74 838.52 386.1 929.95 406.86 1036.49 467.87 1120.52 572.81 1169.35 699.99 1166.44 829.9 1122.93 922.7 1048.13 944.75 960.86 884.59 877.18 758.37 791.9 626.39 721.58 543.43 667.7 560.38 616.37 678.53 578.21 845.4 552.39 974.13 526.57 992.89 514.32 892.22 516.96 731.41 522.14 587.79 545.49 527.08 586.02 563.72 624.96 675.9 669.7 803.8 704.71 894.3 708.43 923.5 674.27 879.93 591.6 786.4 473.74 663.3 336.58 544.66 218.26 450.1 160.72 380.07 185.28 341.34 291.03 324.01 428.25 323.74 541.85 328.13 568.85 327.32 485.7 329.69 327.4 319.59 173.89 293.77 110.01 267.95 170.72 227.63 316.74 176.57 476.45 128.69 574.64 77.33 577.94 32.86 492.89 5.44 368.48 1.65 260.12 31.88 198.61 86.64 208.5 168.22 276.76 257.48 386.21 317.17 505.32 330.14 610.37 274.06 698.7 156.68 757.3 5.63 792.02 -125.47 809.31 -181.06 817.02 -135.06 825.16 -1.42 829.24 149.41 842.32 244.88 868.14 226.16 893.96 97.46 931.29 -64.19 975.9 -172.4 1016.45 -179.42 1055.72 -81.77 1083.18 69.11 1093.21 214.28 1077.14 297.6 1028.62 302.45 963.36 236.54 881.31 137.24 805.7 43.9 771.27 -27.2 791.97 -51.14 880.35 -32.11 1015.58 21.31 1163.16 95.21 1267.14 172.61 1282.79 256.31 1199.33 328.75 1049.59 385.67 913.52 441.29 858.01 482.17 921.85 507.98Q921.89 507.99 921.89 507.99" opacity="0.31"></path><path d="M887.89 290.34C1025.77 313.81 1169.71 323.1 1256.76 321.01 1256.83 321.53 1170.09 316.57 1035.82 314.22 897.55 325.76 801.25 353.96 766.6 408.18 794.51 485.66 864.74 588.67 948.26 705.66 1032.42 809.52 1089.39 884.37 1113.25 904.37 1110 862.88 1080.17 765.13 1035.85 640.02 979.27 540.35 922.77 501.59 874.07 550.32 823.68 673.81 785.43 826.1 761.96 940.13 738.49 962.52 730.91 883.47 737.02 743.71 748.36 553.69 770.39 608.8 733.06 767.67 673.02 850.22 582.35 880.04 467.43 857.5 353.15 791.29 255.09 699.21 202.73 602.16 212.94 503.58 288.19 421.56 409.26 359.01 526.32 307.5 599.71 270.85 590.58 243.13 494.46 219.4 345.77 197.26 207.89 173.79 144.7 150.32 185.42 126.63 305.52 106.09 455.22 89.54 574.33 83.49 624.68 94.33 596.2 116.2 509.9 159.56 404.23 221.97 277.31 312.03 320.97 339.62 447.14 203.82 545.45 73.14 633.59 -53.16 705.14 -132.67 768.63 -135.99 816.16 -57.54 851.8 77.49 883.74 208.19 910.26 282.51 933.73 260.16 957.2 146.15 976.52 -1.38 988.85 -115.83 997.48 -155.53 992.66 -103.43 969.85 13.42 938.98 155.74 889.49 274.56 827.36 340.49 774.65 344.94 733.78 297.93 724.45 224.83 760.78 138.61 844.82 69.29 968.06 27.99 1098.17 9.94 1205.53 20.39 1251.24 49.53 1218.12 92.56 1112.39 140.22 971.75 183.96 860.69 230.31 824.69 266.86 887.85 290.33Q887.89 290.34 887.89 290.34" opacity="0.84"></path><path d="M853.89 173.5C976.27 194.62 1108.7 214.74 1203.26 236.19 1233.62 260.88 1189.03 292.88 1089.67 337.12 962.95 390.75 845.73 461.45 763.61 548.35 726.74 637.6 736.09 729.1 777.52 807.22 843.45 854.13 910.73 860.82 965.86 818.29 1012.3 738.74 1036.94 633.67 1042.31 532.63 1036.72 473.83 1019.38 475.79 996.71 547.66 970.82 670.27 945.79 806.38 924.67 906.13 903.54 931.08 887.32 872.02 873.37 755.58 856.21 620.54 835.12 511.5 804.1 456.86 762.12 465.89 702.68 527.24 623.69 614.92 536 711.33 438.39 785.44 344.77 824.5 275.65 829.52 241.25 799.41 256.14 746.39 316.25 675.18 414.53 600.22 525.76 531.05 609.64 461.26 642.2 403.34 603.69 358.5 500.98 315.14 364.27 282.91 241.89 261.79 180.47 240.66 203.61 231.64 297.22 235.16 428.85 240.17 554.1 259.66 637.45 292.83 661.84 325.39 628 365.57 555.89 404.22 461.61 424.68 376.9 424.46 319.31 391.75 290.38 325.01 297.49 225.85 331.78 107.45 387.65 -2.22 453.37 -82.52 518.25 -107.04 586.93 -67.88 646.22 29.12 693.1 156.02 739.34 264.3 773.41 319.08 794.54 294.13 815.67 194.38 822.85 62.55 816.45 -51.9 809.42 -115.62 788.56 -105.56 756.49 -31.27 728.22 85.25 697.29 209.26 673.96 310.8 672.22 375.34 695.43 393.69 752.03 374.47 837.31 324.04 947.06 262.87 1063.34 206.17 1157.45 151.84 1210.26 115.92 1201.37 98.89 1133.52 91.27 1020.3 97.7 896.83 112.85 811.35 131.24 792.46 152.37 853.85 173.49Q853.89 173.5 853.89 173.5" opacity="0.20"></path><path d="M819.89 264.9C926.97 283.68 1045.97 312.43 1141.98 351.02 1194.37 390.79 1187.7 442.02 1129.03 503.88 1032.74 565.83 922.75 634.56 821.86 703.26 717.75 780.37 708.51 781.12 764.1 682.12 811.63 596.08 852.2 510.28 881.01 447.6 907.21 430.53 920.18 465.53 920.98 551.15 920.02 667.34 909.7 786.18 890.93 872.13 872.15 898.57 845.79 857.43 811.34 765.18 775.13 646.76 727.99 534.38 669.26 453.51 607.9 416.92 536.41 427.53 459.94 474.02 391.6 547.55 332.27 625.31 293.97 691.71 284.78 745.23 309.89 773.04 370.77 776.83 452.11 762.16 545.25 731.72 627.77 693.63 672.69 647.89 668.67 603.39 609.03 565.22 505.77 525.79 382.97 495.63 275.89 476.85 217.31 458.07 225.59 451.56 293.55 455.58 401.54 458.34 519.61 468.68 619.06 481.88 682.86 487.42 700.55 486.95 677.5 472.67 620.18 439.94 548.44 385.17 479.04 307.04 414.77 216.03 371.71 116.01 351.51 22.93 348.33 -43.11 363.39 -70.55 389.57 -47.74 424.56 19.36 461.76 121.05 495.62 232.23 531.31 317.23 559.75 354.57 578.53 328.13 597.31 242.18 605.54 127.15 605.27 18.2 606.83 -60.17 603.78 -84.48 601.33 -53.65 607.69 22.79 623.54 125.43 655.65 231.02 704.79 326.51 774.8 394.9 863.68 432.59 957.69 441.14 1051.7 426.44 1128.58 399.09 1171.2 359.34 1170.36 321.53 1120.34 292.13 1034.66 262.8 927.28 245.73 826.54 241.37 765.81 238.19 761.3 246.11 819.85 264.89Q819.89 264.9 819.89 264.9" opacity="0.91"></path><path d="M785.89 480.51C986.24 513.37 1143.13 584.44 1143.36 672.22 1002.68 737.71 818.08 768.83 687.48 719.45 631.29 611.43 642.43 468.28 668.99 392.92 712.27 467.26 724.62 663.57 691.76 838.13 658.89 839.85 583.93 670.83 483.71 479.65 400.2 380.82 337.78 413.8 350.9 511.25 438.43 630.82 588.18 697.78 704.76 707.77 680.45 691.06 510.24 654.11 309.89 621.25 250.4 588.39 380.38 562.73 576.92 522.49 717.1 455.55 729.74 337.3 657.79 174.66 541.2 34.15 459.06 -33.68 431.31 41.06 426.78 208.15 451.44 363.85 484.31 362.13 517.16 187.57 555.11 4.58 616.57 -45.67 701.26 53.77 834.68 231.77 994.35 382.86 1109.38 475.31 1131.62 495.47 1015.55 486.94 843.1 456.1 726.41 447.64 785.85 480.5Q785.89 480.51 785.89 480.51" opacity="0.51"></path><path d="M751.89 622.09C997.84 666.03 996.75 671.26 788.31 549.14 667.41 449.65 597.23 368.83 563.42 372.12 550.38 481.93 538.44 660.38 510.27 804.13 482.11 818.22 440.38 695.9 404.61 526.69 389.61 387.72 415.83 336.21 499.81 358.14 603.03 433.59 709.75 508.59 749.87 551.82 678.04 588.42 513.06 590.4 343.89 562.23 280.39 534.06 362.64 478.42 522.03 393.01 681.9 300.97 770.25 182.01 781.35 69.64 730.74 10.79 664.8 32.43 620.93 150.75 578.03 299.32 570.34 410.22 598.5 396.13 626.65 252.37 688 85.34 779.71 -3.81 872.39 13.53 982.29 124.23 1069.84 260.64 1095.68 395.64 1037.22 487.66 898 539.76 759.25 571.8 688.4 593.92 751.85 622.08Q751.89 622.09 751.89 622.09" opacity="0.36"></path><path d="M717.89 559.48C855.77 582.95 994.17 581.22 1074.31 551.64 1082.69 516.61 1018.65 452.38 921.23 376.49 805.69 329.52 706.86 322.3 637.31 383.61 576.66 505.01 536.8 656.11 513.33 770.13 489.86 792.52 485 713.92 504.97 582.9 533.84 442.76 596.04 342.04 680.82 294.28 747.47 291.97 786.61 316 761.03 338.6 663.68 369.33 515.77 377.52 377.89 354.05 314.7 330.58 355.74 277.67 467.28 206.26 609.06 142.98 729.01 82.32 802 53.86 832.49 70.86 829.54 146.68 818.97 269.62 797.32 383.43 792.65 452.52 816.12 430.13 839.58 316.1 888.96 174.52 951.3 70.33 1002.54 26.22 1042.14 58.33 1042.42 136.07 1000.21 242.73 905.17 343.59 780.59 419.29 686.25 489.55 654.69 536 717.85 559.47Q717.89 559.48 717.89 559.48" opacity="0.34"></path><path d="M683.89 350.24C790.97 369.02 905.21 362.48 991.92 337.14 1043.66 316.52 1045.46 289.18 1010.97 272.76 950.07 285.29 880.98 332.97 821.76 420.97 760.18 532.41 716.9 650.18 698.12 736.13 679.34 762.57 686.85 721.18 715.88 635.15 742.56 524.45 782.34 419.15 818.63 338.74 828.52 278.73 806.8 244.74 741.29 226.25 640.82 217.01 518.97 206.89 411.89 188.11 353.31 169.33 362.58 143.67 425.58 120.37 524.55 106.32 631.2 111 721.38 146.4 797.75 202.2 848.36 287.59 879.33 384.53 901.27 456.79 918.31 490.57 937.09 464.13 955.87 378.18 974.6 268.02 985.21 170.34 986.78 96.11 965.48 68.34 913.72 80.42 848.16 121.45 761.44 178.1 676.23 231.25 626.98 289.14 625.3 331.45 683.85 350.23Q683.89 350.24 683.89 350.24" opacity="0.55"></path><path d="M649.89 186.74C819.06 214.91 960.69 226.68 1003 276.13 982.07 381.95 922.91 558.38 894.75 702.13 866.58 716.22 874.73 596.14 858.74 458.69 779.52 325.1 615.06 245.14 445.89 216.98 382.4 188.81 463.79 217.77 589.65 314.44 729.67 414.97 822.02 512.22 850.19 498.13 878.35 354.38 837 200.78 733.91 131.88 644.96 119.35 586.4 158.57 649.89 186.74Q649.89 186.74 649.89 186.74" opacity="0.86"></path><path d="M615.89 219.31C846.67 256.86 959.98 462.31 922.43 668.13 884.87 653.63 710.67 451.66 479.89 414.11 428.66 376.55 597.75 517.63 635.31 532.13 672.86 326.31 564.66 181.75 615.89 219.31Q615.89 219.31 615.89 219.31" opacity="0.83"></path></g></svg>