<svg width="32" height="32" viewBox="0 0 32 32" fill="none" xmlns="http://www.w3.org/2000/svg">
<circle cx="16" cy="16" r="16" fill="#0069A8"/>
<path d="M6.0724 22.15C5.2224 22.15 4.4374 22.045 3.7174 21.835C3.0074 21.615 2.3974 21.315 1.8874 20.935L2.4874 19.42C2.8274 19.66 3.1824 19.865 3.5524 20.035C3.9224 20.195 4.3174 20.32 4.7374 20.41C5.1574 20.49 5.6024 20.53 6.0724 20.53C6.8624 20.53 7.4324 20.4 7.7824 20.14C8.1324 19.88 8.3074 19.54 8.3074 19.12C8.3074 18.75 8.1874 18.47 7.9474 18.28C7.7074 18.08 7.2774 17.915 6.6574 17.785L4.9624 17.44C3.9924 17.24 3.2674 16.905 2.7874 16.435C2.3074 15.965 2.0674 15.335 2.0674 14.545C2.0674 13.885 2.2424 13.31 2.5924 12.82C2.9424 12.33 3.4324 11.95 4.0624 11.68C4.6924 11.41 5.4274 11.275 6.2674 11.275C7.0174 11.275 7.7124 11.385 8.3524 11.605C8.9924 11.815 9.5274 12.12 9.9574 12.52L9.3574 13.96C8.9274 13.6 8.4574 13.335 7.9474 13.165C7.4374 12.985 6.8674 12.895 6.2374 12.895C5.5274 12.895 4.9724 13.035 4.5724 13.315C4.1824 13.585 3.9874 13.96 3.9874 14.44C3.9874 14.81 4.1074 15.105 4.3474 15.325C4.5974 15.545 5.0174 15.715 5.6074 15.835L7.2874 16.165C8.2874 16.365 9.0274 16.695 9.5074 17.155C9.9874 17.605 10.2274 18.215 10.2274 18.985C10.2274 19.615 10.0574 20.17 9.7174 20.65C9.3774 21.12 8.8974 21.49 8.2774 21.76C7.6574 22.02 6.9224 22.15 6.0724 22.15ZM12.0504 22V11.425H19.0254V12.94H13.9854V15.94H18.6804V17.455H13.9854V22H12.0504ZM20.6344 22V11.425H22.0894L28.2244 19.36H27.8344V11.425H29.6344V22H28.1794L22.0594 14.065H22.4344V22H20.6344Z" fill="white"/>
</svg>
